<svg width="50" height="50" viewBox="0 0 50 50" fill="none" xmlns="http://www.w3.org/2000/svg">
<path d="M0 25C0 11.1914 11.1914 0 25 0C38.8086 0 50 11.1914 50 25C50 38.8086 38.8086 50 25 50C11.1914 50 0 38.8086 0 25ZM17.0898 20.3223L21.6895 24.9121L17.0898 29.5898C16.1816 30.5078 16.1816 31.9922 17.0898 32.8223C18.0078 33.8184 19.4922 33.8184 20.3223 32.8223L24.9121 28.3105L29.5898 32.8223C30.5078 33.8184 31.9922 33.8184 32.8223 32.8223C33.8184 31.9922 33.8184 30.5078 32.8223 29.5898L28.3105 24.9121L32.8223 20.3223C33.8184 19.4922 33.8184 18.0078 32.8223 17.0898C31.9922 16.1816 30.5078 16.1816 29.5898 17.0898L24.9121 21.6895L20.3223 17.0898C19.4922 16.1816 18.0078 16.1816 17.0898 17.0898C16.1816 18.0078 16.1816 19.4922 17.0898 20.3223Z" fill="white"/>
</svg>
