<svg width="50" height="50" viewBox="0 0 50 50" fill="none" xmlns="http://www.w3.org/2000/svg">
<path d="M0 9.375C0 7.64941 1.59933 6.25 3.57143 6.25H46.4286C48.404 6.25 50 7.64941 50 9.375C50 11.1035 48.404 12.5 46.4286 12.5H3.57143C1.59933 12.5 0 11.1035 0 9.375ZM0 25C0 23.2715 1.59933 21.875 3.57143 21.875H46.4286C48.404 21.875 50 23.2715 50 25C50 26.7285 48.404 28.125 46.4286 28.125H3.57143C1.59933 28.125 0 26.7285 0 25ZM46.4286 43.75H3.57143C1.59933 43.75 0 42.3535 0 40.625C0 38.8965 1.59933 37.5 3.57143 37.5H46.4286C48.404 37.5 50 38.8965 50 40.625C50 42.3535 48.404 43.75 46.4286 43.75Z" fill="black"/>
</svg>
